/* XPM */
static char *result[] = {
/* columns rows colors chars-per-pixel */
"50 50 5 1 ",
"  c #4F1E45",
". c #963057",
"X c #D74459",
"o c #EB7060",
"O c #FFB383",
/* pixels */
"...ooooooooooooooooooooooooooooooooooooooooo...XXX",
"...ooooooooooooooooooooooooooooooooooooooooo...XXX",
"...ooooooooooooooooooooooooooooooooooooooooo...XXX",
"ooooooooooooooooooooooooooooooooooooooooooooOOOXXX",
"ooooooooooooooooooooooooooooooooooooooooooooOOOXXX",
"ooooooooooooooooooooooooooooooooooooooooooooOOOXXX",
"ooooooooooooooooooooooooooooooooooooooooooooOOOXXX",
"ooooooooooooooooooooooooooooooooooooooooooooOOOXXX",
"ooooooooooooooooooooooooooooooooooooooooooooOOOXXX",
"ooooooooooooooooooooooooooooooooooooooooooooOOOXXX",
"ooooooooooooooooooooooooooooooooooooooooooooOOOXXX",
"ooooooooooooooooooooooooooooooooooooooooooooOOOXXX",
"ooooooooooooooooooooooooooooooooooooooooooooOOOXXX",
"ooooooooooooooooooooooooooooooooooooooooooooOOOXXX",
"ooooooooooooooooooooooooooooooooooooooooooooOOOXXX",
"ooooooooooooooooooooooooooooooooooooooooooooOOOXXX",
"ooooooooooooooooooooooooooooooooooooooooooooOOOXXX",
"ooooooooooooooooooooooooooooooooooooooooooooOOOXXX",
"ooooooooooooooooooooooooooooooooooooooooooooOOOXXX",
"ooooooooooooooooooooooooooooooooooooooooooooOOOXXX",
"ooooooooooooooooooooooooooooooooooooooooooooOOOXXX",
"ooooooooooooooooooooooooooooooooooooooooooooOOOXXX",
"ooooooooooooooooooooooooooooooooooooooooooooOOOXXX",
"ooooooooooooooooooooooooooooooooooooooooooooOOOXXX",
"ooooooooooooooooooooooooooooooooooooooooooooOOOXXX",
"ooooooooooooooooooooooooooooooooooooooooooooOOOXXX",
"ooooooooooooooooooooooooooooooooooooooooooooOOOXXX",
"ooooooooooooooooooooooooooooooooooooooooooooOOOXXX",
"ooooooooooooooooooooooooooooooooooooooooooooOOOXXX",
"ooooooooooooooooooooooooooooooooooooooooooooOOOXXX",
"ooooooooooooooooooooooooooooooooooooooooooooOOOXXX",
"ooooooooooooooooooooooooooooooooooooooooooooOOOXXX",
"ooooooooooooooooooooooooooooooooooooooooooooOOOXXX",
"ooooooooooooooooooooooooooooooooooooooooooooOOOXXX",
"ooooooooooooooooooooooooooooooooooooooooooooOOOXXX",
"ooooooooooooooooooooooooooooooooooooooooooooOOOXXX",
"ooooooooooooooooooooooooooooooooooooooooooooOOOXXX",
"ooooooooooooooooooooooooooooooooooooooooooooOOOXXX",
"ooooooooooooooooooooooooooooooooooooooooooooOOOXXX",
"ooooooooooooooooooooooooooooooooooooooooooooOOOXXX",
"ooooooooooooooooooooooooooooooooooooooooooooOOOXXX",
"OOOoooooooooooooooooooooooooooooooooooooooooOOOXXX",
"OOOoooooooooooooooooooooooooooooooooooooooooOOOXXX",
"OOOoooooooooooooooooooooooooooooooooooooooooOOOXXX",
"...OOOOOOOOOOOOOOOOOOOOOOOOOOOOOOOOOOOOOOOOO   XXX",
"...OOOOOOOOOOOOOOOOOOOOOOOOOOOOOOOOOOOOOOOOO   XXX",
"...OOOOOOOOOOOOOOOOOOOOOOOOOOOOOOOOOOOOOOOOO   XXX",
"XXXXXXXXXXXXXXXXXXXXXXXXXXXXXXXXXXXXXXXXXXXXXXXXXX",
"XXXXXXXXXXXXXXXXXXXXXXXXXXXXXXXXXXXXXXXXXXXXXXXXXX",
"XXXXXXXXXXXXXXXXXXXXXXXXXXXXXXXXXXXXXXXXXXXXXXXXXX"
};
