/* XPM */
static char *f9cb35009f434506ccbbc52df3cfc2eeyKHt2xoRvkoJ8NZl[] = {
/* columns rows colors chars-per-pixel */
"16 16 7 1 ",
"  c None",
". c #322451",
"X c #963057",
"o c #457EA3",
"O c #7FE3BB",
"+ c #FFB383",
"@ c white",
/* pixels */
"      +       + ",
"OO@@O+O@@OOO@@O+",
"O@@@@+@@@@+@@@+O",
"+@+@+.@++@+@@+@O",
"O+.+.++..+.++..O",
"O.@@...@@...@@.O",
"+@@@@.@@@@+@@@@+",
"O+@+@++@++.+@@++",
"O.+.+..+....++.O",
"OOOOOOOOOOOOOOOO",
"oXooooooooooooXo",
"oooooooooooooooo",
"................",
"oXooooooooooooXo",
" ...............",
"                "
};
