/* XPM */
static char *a6e4e0f0d4ad4363dfc421e6b56535aaWI8zs7JnfuY9pD8i[] = {
/* columns rows colors chars-per-pixel */
"16 16 4 1 ",
"  c #4F1E45",
". c #384276",
"X c #457EA3",
"o c #5CBBC4",
/* pixels */
"           XXXo ",
"           oooX ",
"           .... ",
"           XXXo ",
"           XXXo ",
"           oooX ",
"           .... ",
"           XXXo ",
"           XXXo ",
"           oooX ",
"           .... ",
".XXXXXXo.XXXXXo ",
".XXXXXXo.XXXXXo ",
".XXXXXXo.XXXXXo ",
".ooooooX.oooooX ",
"                "
};
