/* XPM */
static char *_075f1704d06480fa8d57e14a9b89236Ca1r7FOtCYmxciKv[] = {
/* columns rows colors chars-per-pixel */
"16 16 7 1 ",
"  c None",
". c #322451",
"X c #4F1E45",
"o c #384276",
"O c #963057",
"+ c #7FE3BB",
"@ c #FFB383",
/* pixels */
"                ",
"                ",
"..++@@@@@@@..   ",
" X@OOOOOoooX    ",
"  +@@@@@@@O     ",
"  +@@XXX@@O     ",
"  +@X@X@X@O     ",
"  +@XXXXX@O     ",
"  +@@XXX@@O     ",
"  +@@X@X@@@O    ",
"   +@@@@@@@O    ",
"   +@@@@@@ O    ",
"   +@@@@@@@O    ",
"    O@@@ @ @O   ",
"     O @@O  O   ",
"        O       "
};
