/* XPM */
static char *result[] = {
/* columns rows colors chars-per-pixel */
"16 16 4 1 ",
"  c #322451",
". c #4F1E45",
"X c #384276",
"o c #457EA3",
/* pixels */
"oooooo oooooo oo",
"XXXXXo XXXXXo XX",
"XXXXXo XXXXXo XX",
"   .  .   .  .  ",
"XXX oooooo XXXXX",
"XXX XXXXXX XXXXX",
"XXX XXXXXX XXXXX",
"   .  .   .  .  ",
"XXXXXX XXXXXX XX",
"XXXXXX XXXXXX XX",
"XXXXXX XXXXXX XX",
"   .  .   .  .  ",
"XXX XXXXXX XXXXX",
"  X.     X.     ",
"  X.     X.     ",
"................"
};
