/* XPM */
static char *b6deaebc7acf4cb6edc544127260f133Kk0ixYb9AA0SK7Tn[] = {
/* columns rows colors chars-per-pixel */
"16 16 7 1 ",
"  c #322451",
". c #4F1E45",
"X c #384276",
"o c #457EA3",
"O c #7FE3BB",
"+ c #5CBBC4",
"@ c white",
/* pixels */
"oooooo oooooo oo",
"XXXXXoooXoXXo XX",
"XXXoXo++oXoXo XX",
"   .o+@@+o.  .  ",
"XXXo+O@OO+oXXXXX",
"XXXo++OO++oXXXXX",
"XXo o+oo+o oXXXX",
"   o oXXo .  .  ",
"XXXXXX..XoXXX XX",
"XXXXXX..XXXXX XX",
"XXXXXX..XXXXX XX",
"   .  ..  .  .  ",
"XXX XX..XX XXXXX",
"  X.     X.     ",
"  X.     X.     ",
"................"
};
