/* XPM */
static char *_8ae38be8f1d4529c05999f61e09f169TVLgzMoUmOrmWBg9[] = {
/* columns rows colors chars-per-pixel */
"16 16 5 1 ",
"  c #4F1E45",
". c #963057",
"X c #D74459",
"o c #EB7060",
"O c #FFB383",
/* pixels */
".oO.OO..OO.Ooo.X",
".OoooOOOOoooOo.X",
"..oOooOOooOoo..X",
"...oOooooOoo...X",
"...oooOOooo....X",
"....oooOoo...o.X",
"..o...ooo......X",
".....o.o....o..X",
"ooooooooooooooOX",
"ooooooooooooooOX",
"ooooooooooooooOX",
"ooooooooooooooOX",
"ooooooooooooooOX",
"OoooooooooooooOX",
".OOOOOOOOOOOOO X",
"XXXXXXXXXXXXXXXX"
};
