/* XPM */
static char *result[] = {
/* columns rows colors chars-per-pixel */
"16 16 6 1 ",
"  c #322451",
". c #4F1E45",
"X c #384276",
"o c #457EA3",
"O c #7FE3BB",
"+ c #5CBBC4",
/* pixels */
".............O++",
"Xoooooo+Xooo.. +",
"Xoooooo+Xooo+..O",
"Xoooooo+Xoooo+..",
"X++++++oXooooo+X",
"XXXXXXXXXX ooo+X",
"............oo+X",
"...........+++o.",
"...........XXXX.",
"...........ooo+.",
"...........ooo+.",
"...........+++o.",
"...........XXXX.",
"...........ooo+.",
"...........ooo+.",
"...........+++o."
};
