/* XPM */
static char *_fb49cae51cd4dc2ccc1dcc6fe64b930eTUrHgBVoBsza90x[] = {
/* columns rows colors chars-per-pixel */
"16 16 4 1 ",
"  c #4F1E45",
". c #384276",
"X c #457EA3",
"o c #5CBBC4",
/* pixels */
" XXXo.          ",
" oooX.          ",
" .....          ",
" XXXo.          ",
" XXXo.          ",
" oooX.          ",
" .....          ",
" XXXo.          ",
" XXXo.          ",
" oooX.          ",
" ....           ",
" XXXXXo.XXXXXXo.",
" XXXXXo.XXXXXXo.",
" XXXXXo.XXXXXXo.",
" .ooooX.ooooooX.",
"                "
};
